<?xml version="1.0" encoding="UTF-8" standalone="no"?>
<svg
   width="171"
   height="46"
   viewBox="0 0 171 46"
   fill="none"
   version="1.1"
   id="svg908"
   sodipodi:docname="codemetal-logo-light.svg"
   inkscape:version="1.1.2 (0a00cf5339, 2022-02-04)"
   xmlns:inkscape="http://www.inkscape.org/namespaces/inkscape"
   xmlns:sodipodi="http://sodipodi.sourceforge.net/DTD/sodipodi-0.dtd"
   xmlns="http://www.w3.org/2000/svg"
   xmlns:svg="http://www.w3.org/2000/svg">
  <defs
     id="defs912" />
  <sodipodi:namedview
     id="namedview910"
     pagecolor="#ffffff"
     bordercolor="#666666"
     borderopacity="1.0"
     inkscape:pageshadow="2"
     inkscape:pageopacity="0.0"
     inkscape:pagecheckerboard="0"
     showgrid="false"
     inkscape:zoom="7.0233918"
     inkscape:cx="85.5"
     inkscape:cy="23.065779"
     inkscape:window-width="1840"
     inkscape:window-height="1003"
     inkscape:window-x="3004"
     inkscape:window-y="582"
     inkscape:window-maximized="0"
     inkscape:current-layer="svg908" />
  <path
     d="M25.2443 8.77618L39.2477 22.7795L25.2443 36.7829L21.5434 33.082L31.8459 22.7794L21.5434 12.4771L25.2443 8.77618Z"
     fill="#FBFAF4"
     id="path884"
     style="fill:#4d4d4d" />
  <path
     d="M23.442 17.6282L18.2907 22.7794L23.442 27.9306L19.7411 31.6315L10.8892 22.7795L19.7411 13.9274L23.442 17.6282Z"
     fill="#FBFAF4"
     id="path886"
     style="fill:#4d4d4d" />
  <path
     d="M28.7693 22.7795L25.0684 26.4803L21.3675 22.7795L25.0684 19.0786L28.7693 22.7795Z"
     fill="#FBFAF4"
     id="path888"
     style="fill:#4d4d4d" />
  <path
     d="M155.94 30.7317V14.6901H159.172V30.7317H155.94Z"
     fill="#FBFAF4"
     id="path890"
     style="fill:#4d4d4d" />
  <path
     d="M146.945 30.8691C144.401 30.8691 142.568 29.6546 142.568 27.4087C142.568 24.9109 144.447 23.49 147.976 23.49H150.314V22.9171C150.314 21.84 149.557 21.1755 148.159 21.1755C146.922 21.1755 146.097 21.7255 145.96 22.5963H142.843C143.072 20.3276 145.18 18.8151 148.297 18.8151C151.597 18.8151 153.499 20.2817 153.499 23.1004V27.2712C153.499 27.89 153.728 28.0046 154.232 28.0046H154.622V30.7316H152.972C151.368 30.7316 150.795 29.9754 150.795 28.9212V28.8525C149.97 30.1129 148.778 30.8691 146.945 30.8691ZM147.564 28.5317C149.259 28.5317 150.314 27.4775 150.314 25.8733V25.6442H147.93C146.555 25.6442 145.822 26.1483 145.822 27.1567C145.822 28.0046 146.487 28.5317 147.564 28.5317Z"
     fill="#FBFAF4"
     id="path892"
     style="fill:#4d4d4d" />
  <path
     d="M138.763 30.7316C136.517 30.7316 135.394 29.6087 135.394 27.3629V21.6796H133.446V18.9526H135.394V15.6526H138.625V18.9526H141.398V21.6796H138.625V26.8358C138.625 27.6608 138.946 28.0046 139.794 28.0046H141.398V30.7316H138.763Z"
     fill="#FBFAF4"
     id="path894"
     style="fill:#4d4d4d" />
  <path
     d="M127.117 30.8691C123.198 30.8691 120.837 28.5087 120.837 24.865C120.837 21.1984 123.244 18.8151 126.887 18.8151C130.394 18.8151 132.823 21.038 132.823 24.5213C132.823 24.865 132.823 25.2088 132.8 25.5983H124.206V25.7129C124.206 27.3858 125.352 28.4171 126.979 28.4171C128.285 28.4171 129.225 27.8442 129.5 26.79H132.708C132.341 29.0358 130.256 30.8691 127.117 30.8691ZM124.252 23.4442H129.592C129.362 22.0234 128.4 21.2213 126.933 21.2213C125.558 21.2213 124.481 22.0463 124.252 23.4442Z"
     fill="#FBFAF4"
     id="path896"
     style="fill:#4d4d4d" />
  <path
     d="M100.641 30.7316V18.9526H103.46L103.735 20.4192C104.422 19.5026 105.454 18.8151 107.172 18.8151C108.639 18.8151 110.014 19.3651 110.747 20.8088C111.549 19.5713 112.901 18.8151 114.712 18.8151C117.141 18.8151 119.089 20.1671 119.089 23.8567V30.7316H115.858V24.0171C115.858 22.3442 115.216 21.4734 113.818 21.4734C112.42 21.4734 111.481 22.4588 111.481 24.1775V30.7316H108.249V24.0171C108.249 22.3442 107.608 21.4734 106.187 21.4734C104.789 21.4734 103.872 22.5046 103.872 24.2004V30.7316H100.641Z"
     fill="#FBFAF4"
     id="path898"
     style="fill:#4d4d4d" />
  <path
     d="M93.0775 30.8691C89.1587 30.8691 86.7983 28.5087 86.7983 24.865C86.7983 21.1984 89.2046 18.8151 92.8483 18.8151C96.3545 18.8151 98.7837 21.038 98.7837 24.5213C98.7837 24.865 98.7837 25.2088 98.7607 25.5983H90.1671V25.7129C90.1671 27.3858 91.3129 28.4171 92.94 28.4171C94.2462 28.4171 95.1858 27.8442 95.4608 26.79H98.6691C98.3024 29.0358 96.217 30.8691 93.0775 30.8691ZM90.2129 23.4442H95.5524C95.3233 22.0234 94.3608 21.2213 92.8941 21.2213C91.5191 21.2213 90.4421 22.0463 90.2129 23.4442Z"
     fill="#FBFAF4"
     id="path900"
     style="fill:#4d4d4d" />
  <path
     d="M78.1763 30.8692C75.0138 30.8692 72.6992 28.5546 72.6992 24.8192C72.6992 21.1755 75.0138 18.8151 78.1533 18.8151C79.8033 18.8151 80.9721 19.4797 81.7054 20.4192V14.6901H84.9366V30.7317H82.1179L81.7971 29.0817C81.0408 30.09 79.8721 30.8692 78.1763 30.8692ZM78.8867 28.2338C80.6283 28.2338 81.7512 26.9046 81.7512 24.865C81.7512 22.8026 80.6283 21.4505 78.8867 21.4505C77.1221 21.4505 75.9992 22.7796 75.9992 24.8421C75.9992 26.9046 77.1221 28.2338 78.8867 28.2338Z"
     fill="#FBFAF4"
     id="path902"
     style="fill:#4d4d4d" />
  <path
     d="M65.1689 30.8691C61.4106 30.8691 58.9585 28.4629 58.9585 24.8421C58.9585 21.2213 61.4106 18.8151 65.1689 18.8151C68.9272 18.8151 71.3792 21.2213 71.3792 24.8421C71.3792 28.4629 68.9272 30.8691 65.1689 30.8691ZM65.1689 28.2337C66.9793 28.2337 68.1022 26.8358 68.1022 24.8421C68.1022 22.8484 66.9793 21.4505 65.1689 21.4505C63.3585 21.4505 62.2585 22.8484 62.2585 24.8421C62.2585 26.8358 63.3585 28.2337 65.1689 28.2337Z"
     fill="#FBFAF4"
     id="path904"
     style="fill:#4d4d4d" />
  <path
     d="M51.9153 30.8691C48.1799 30.8691 45.9111 28.5546 45.9111 24.8421C45.9111 21.1984 48.2944 18.8151 52.0298 18.8151C55.2381 18.8151 57.2319 20.5567 57.6902 23.3525H54.3215C54.0465 22.1838 53.2444 21.4505 51.984 21.4505C50.2882 21.4505 49.2111 22.8484 49.2111 24.8421C49.2111 26.8588 50.2653 28.2337 51.984 28.2337C53.2673 28.2337 54.0923 27.4775 54.3444 26.2858H57.7131C57.2548 29.1046 55.1236 30.8691 51.9153 30.8691Z"
     fill="#FBFAF4"
     id="path906"
     style="fill:#4d4d4d" />
</svg>
