<?xml version="1.0" encoding="UTF-8"?>
<svg id="b" data-name="Layer 2" xmlns="http://www.w3.org/2000/svg" width="2150" height="745.918" viewBox="0 0 2150 745.918">
  <g id="c" data-name="PickleRobot Logo">
    <g>
      <path d="M2111.486,433.413v273.991h-273.991v-273.991h273.991M2150,394.898h-351.02v351.02h351.02v-351.02h0Z" fill="#69ff47"/>
      <g>
        <path d="M1914.524,570.408h0c0-16.088,12.188-29.252,29.252-29.252,10.725,0,17.063,3.413,21.939,8.775l-7.8,9.263c-4.388-3.9-8.776-6.338-14.138-6.338-9.263,0-16.089,7.8-16.089,17.551h0c0,9.751,6.826,17.551,16.089,17.551,6.338,0,10.238-2.438,14.626-6.338l7.8,7.8c-5.85,6.338-12.188,10.238-22.914,10.238-16.576,0-28.764-12.675-28.764-29.251Z" fill="#69ff47"/>
        <path d="M1975.465,570.408h0c0-16.088,12.676-29.252,29.739-29.252s29.739,13.163,29.739,28.764h0c0,16.088-12.676,29.252-29.739,29.252s-29.739-12.676-29.739-28.764ZM2022.268,570.408h0c0-9.751-6.826-18.039-17.063-18.039s-17.063,7.8-17.063,17.551h0c0,9.751,6.826,17.551,17.063,17.551s17.063-7.313,17.063-17.063Z" fill="#69ff47"/>
      </g>
      <g>
        <path d="M904.853,494.841h0c0-10.238-7.8-16.088-21.939-16.088h-33.152v32.177h30.714c15.114,0,24.376-4.388,24.376-16.088Z" fill="#69ff47"/>
        <path d="M186.236,479.728h-33.152v43.39h33.64c16.088,0,25.352-8.775,25.352-21.451v-.487c0-14.138-9.751-21.451-25.839-21.451Z" fill="#69ff47"/>
        <path d="M205.737,152.596h0c0-15.601-10.238-23.401-27.301-23.401h-25.839v46.315h26.327c17.063,0,26.814-10.238,26.814-22.914Z" fill="#69ff47"/>
        <path d="M888.277,538.719h-38.515v33.152h39.49c14.626,0,23.401-5.363,23.401-16.576v-.487c.488-9.75-7.313-16.088-24.376-16.088Z" fill="#69ff47"/>
        <path d="M527.506,477.778c-26.814,0-45.34,21.451-45.34,47.29v.487c0,25.839,19.014,47.778,45.828,47.778s45.34-21.451,45.34-47.29v-.487c0-25.839-19.014-47.778-45.828-47.778Z" fill="#69ff47"/>
        <path d="M1755.102,0H0v702.041h1755.102v-351.02h351.02V0h-351.02ZM1529.377,98.968h33.152v121.395h75.567v30.227h-109.206V98.968h.487ZM1167.631,98.968h33.152v66.304l61.428-66.304h40.465l-61.916,64.354,64.841,87.268h-39.977l-46.803-64.841-17.551,18.039v46.315h-33.152V98.968h-.487ZM510.93,98.968h33.152v151.621h-33.152V98.968ZM119.445,98.968h61.916c36.077,0,58.016,21.451,58.016,52.653v.488c0,35.102-27.301,53.141-61.428,53.141h-25.352v45.34h-33.152V98.968h0ZM211.587,601.61l-32.664-48.753h-26.326v48.753h-33.152v-151.621h69.229c19.501,0,34.127,5.363,44.365,15.601,8.288,8.288,13.163,20.476,13.163,34.614v.487c0,24.376-13.163,39.977-32.664,46.803l37.052,54.116h-39.002ZM608.436,525.556c0,42.902-34.127,78.492-80.93,78.492s-80.442-35.102-80.442-78.005v-.487c0-42.902,34.127-78.492,80.93-78.492,46.803,0,80.442,35.102,80.442,78.492h0ZM805.397,174.535c0-42.902,32.664-78.492,78.98-78.492,28.764,0,45.828,9.751,59.966,23.401l-21.451,24.376c-11.701-10.726-23.401-17.063-39.002-17.063-25.352,0-43.878,21.451-43.878,47.29v.488c0,25.839,18.039,47.778,43.878,47.778,17.551,0,27.789-6.825,39.977-17.551l21.451,21.451c-15.601,16.576-33.152,27.302-62.404,27.302-44.365-.487-77.517-34.614-77.517-78.98h0ZM946.293,559.683c0,27.789-22.426,41.44-56.553,41.44h-72.154v-151.621h70.692c17.551,0,31.202,4.875,39.49,13.651,6.826,6.826,10.238,15.601,10.238,25.839v.487c0,17.063-9.263,26.814-19.989,32.664,17.551,6.825,28.277,17.063,28.277,37.54h0ZM1310.964,525.556c0,42.902-34.127,78.492-80.93,78.492s-80.442-35.102-80.442-78.005v-.487c0-42.902,34.127-78.492,80.93-78.492,46.803,0,80.442,35.102,80.442,78.492h0ZM1642.971,480.703h-46.315v120.907h-33.152v-120.907h-46.315v-30.714h125.783v30.714ZM1987.653,250.59h-115.544V98.968h114.569v29.739h-81.417v30.714h71.666v29.739h-71.666v31.689h82.392v29.739h0Z" fill="#69ff47"/>
        <path d="M1230.034,477.778c-26.814,0-45.34,21.451-45.34,47.29v.487c0,25.839,19.014,47.778,45.828,47.778s45.34-21.451,45.34-47.29v-.487c.487-25.839-18.526-47.778-45.828-47.778Z" fill="#69ff47"/>
      </g>
    </g>
  </g>
</svg>