<svg width="204" height="41" viewBox="0 0 204 41" fill="none" xmlns="http://www.w3.org/2000/svg">
    <path fill-rule="evenodd" clip-rule="evenodd" d="M0 40.255V19.063A9.272 9.272 0 0 1 9.272 9.79h7.682v5.828H9.272a3.444 3.444 0 0 0-3.444 3.444v21.192H0zm27.297-5.828H39.1v-9.98l-12.646 3.198c-3.932.994-3.212 6.782.844 6.782zM20.662 9.79h16.853a7.412 7.412 0 0 1 7.412 7.338v23.126h-17.63c-10.919 0-12.858-15.584-2.272-18.26l12.879-3.257a1.584 1.584 0 0 0-.389-3.119H20.662V9.791zm33.802 0h-6.358v5.828h6.358a3.444 3.444 0 0 1 3.443 3.444v21.192h5.828V19.063a9.272 9.272 0 0 0-9.271-9.272zm9.668-2.914H57.51V.255h6.622v6.622z" fill="#6C48FC"/>
    <path fill-rule="evenodd" clip-rule="evenodd" d="M94.19 39.4c.686.57 1.641.855 2.866.855.759 0 1.417-.12 1.974-.358.558-.24.983-.573 1.277-1.002.294-.428.441-.906.441-1.432 0-.747-.218-1.341-.652-1.782-.435-.44-1.069-.753-1.901-.936l-1.323-.313c-.428-.085-.744-.211-.946-.376a.802.802 0 0 1-.303-.652.87.87 0 0 1 .395-.754c.263-.183.597-.275 1.001-.275h.147c.478 0 .845.129 1.102.386.257.257.41.6.46 1.028h2.112c0-.943-.325-1.692-.974-2.25-.649-.557-1.561-.835-2.737-.835-.698 0-1.32.116-1.864.349-.545.232-.97.563-1.276.991-.307.43-.46.925-.46 1.488 0 .735.236 1.32.707 1.754.472.435 1.16.757 2.067.965l1.267.275c.38.086.655.211.827.377.171.165.257.383.257.652 0 .306-.135.554-.404.743-.27.19-.619.285-1.047.285h-.147c-.502 0-.912-.128-1.23-.385-.32-.258-.49-.619-.515-1.084h-2.149c0 .955.343 1.717 1.028 2.287zM81.004 27.215H78.8V40.07h2.204V27.214zm55.562-4.428c-.87 0-1.638-.202-2.305-.606a4.096 4.096 0 0 1-1.552-1.69c-.368-.722-.551-1.549-.551-2.48 0-.93.183-1.756.551-2.479a4.098 4.098 0 0 1 1.552-1.69c.667-.404 1.435-.606 2.305-.606.759 0 1.423.129 1.993.386a3.261 3.261 0 0 1 1.368 1.13c.343.495.545 1.099.606 1.809h-2.112c-.073-.49-.266-.879-.578-1.167-.313-.287-.714-.431-1.204-.431h-.147c-.502 0-.918.137-1.249.413-.33.275-.575.643-.734 1.102-.159.46-.239.97-.239 1.534 0 .87.187 1.595.56 2.176.374.582.928.873 1.662.873h.147c.49 0 .891-.144 1.204-.432.312-.288.505-.676.578-1.166h2.112c-.085 1.077-.48 1.9-1.184 2.47-.705.57-1.632.854-2.783.854zm-40.712-2.094a2.07 2.07 0 0 1-1.221.368h-.147a2.04 2.04 0 0 1-1.203-.368c-.349-.244-.622-.597-.817-1.056-.196-.459-.294-1-.294-1.625s.098-1.167.294-1.626c.195-.459.468-.81.817-1.056.349-.245.75-.367 1.203-.367h.147c.465 0 .872.122 1.221.367.35.245.619.597.809 1.056.19.46.284 1.001.284 1.626 0 .624-.095 1.166-.284 1.625-.19.46-.46.812-.809 1.056zm-3.618 1.479c.68.41 1.454.615 2.323.615.87 0 1.647-.205 2.333-.615a4.296 4.296 0 0 0 1.607-1.7c.386-.721.579-1.542.579-2.46 0-.919-.193-1.739-.579-2.462a4.299 4.299 0 0 0-1.607-1.699c-.686-.41-1.463-.615-2.333-.615-.87 0-1.643.205-2.323.615-.68.41-1.212.977-1.598 1.7-.386.722-.579 1.542-.579 2.46 0 .919.193 1.74.58 2.462a4.315 4.315 0 0 0 1.597 1.699zm-6.925-6.75c-.349.171-.774.257-1.276.257h-3.03v-3.967h3.03c.759 0 1.337.159 1.736.477.397.319.597.796.597 1.433 0 .416-.09.777-.267 1.083-.177.307-.44.545-.79.717zM78.8 9.745v12.858h2.203v-4.978h3.95c.477 0 .801.083.973.248.171.165.257.493.257.983v3.747h2.204v-4.299c0-.624-.153-1.083-.46-1.377-.305-.294-.807-.44-1.505-.44.673-.246 1.2-.644 1.58-1.195.379-.55.569-1.236.569-2.057 0-.661-.175-1.258-.524-1.79a3.562 3.562 0 0 0-1.432-1.25c-.607-.3-1.283-.45-2.03-.45h-5.786zm26.522 11.315c.428 0 .814-.122 1.157-.368.343-.244.612-.597.808-1.056.196-.459.294-1.007.294-1.644 0-.943-.211-1.683-.634-2.222-.422-.539-.964-.808-1.625-.808h-.147a1.97 1.97 0 0 0-1.139.367c-.355.245-.64.597-.854 1.056-.214.46-.321 1.001-.321 1.626 0 .624.107 1.166.321 1.625.214.46.499.812.854 1.056.355.245.735.368 1.139.368h.147zm.349 1.726a3.511 3.511 0 0 1-1.699-.422c-.521-.282-.891-.612-1.111-.992v1.23h-2.113V9.745h2.113v4.904c.22-.379.578-.71 1.074-.991a3.307 3.307 0 0 1 1.662-.423c.821 0 1.54.208 2.159.625.618.416 1.095.985 1.432 1.708.337.722.505 1.537.505 2.443 0 .906-.162 1.72-.486 2.443-.325.722-.79 1.292-1.396 1.708-.606.416-1.32.624-2.14.624zm10.974-2.094a2.07 2.07 0 0 1-1.221.368h-.147a2.04 2.04 0 0 1-1.203-.368c-.349-.244-.622-.597-.817-1.056-.196-.459-.294-1-.294-1.625s.098-1.167.294-1.626c.195-.459.468-.81.817-1.056.349-.245.75-.367 1.203-.367h.147c.465 0 .872.122 1.221.367.349.245.619.597.809 1.056.189.46.284 1.001.284 1.626 0 .624-.095 1.166-.284 1.625-.19.46-.46.812-.809 1.056zm-3.618 1.479c.68.41 1.454.615 2.324.615.869 0 1.646-.205 2.332-.615a4.288 4.288 0 0 0 1.607-1.7c.386-.721.579-1.542.579-2.46 0-.919-.193-1.739-.579-2.462a4.29 4.29 0 0 0-1.607-1.699c-.686-.41-1.463-.615-2.332-.615-.87 0-1.644.205-2.324.615-.68.41-1.212.977-1.598 1.7-.386.722-.579 1.542-.579 2.46 0 .919.193 1.74.579 2.462a4.315 4.315 0 0 0 1.598 1.699zm11.562.431c-.71 0-1.258-.192-1.643-.578-.386-.386-.579-.934-.579-1.644v-5.216h-1.947v-1.745h1.947v-2.976h2.112v2.976h2.113v1.745h-2.113v4.72c0 .355.061.594.184.716.122.123.361.184.716.184h1.488v1.819h-2.278zm5.86-9.183h-2.113v9.183h2.113V13.42zm.092-3.674h-2.296v2.278h2.296V9.745zm11.975 12.187c.686.57 1.641.854 2.865.854.759 0 1.417-.12 1.975-.358.557-.239.982-.572 1.276-1.001.294-.428.441-.906.441-1.433 0-.746-.217-1.34-.652-1.781-.435-.441-1.068-.753-1.901-.937l-1.322-.312c-.429-.086-.744-.211-.946-.377a.801.801 0 0 1-.303-.652.87.87 0 0 1 .395-.753c.263-.184.596-.276 1.001-.276h.146c.478 0 .845.13 1.103.386.257.258.41.6.459 1.029h2.112c0-.943-.325-1.693-.973-2.25-.65-.557-1.562-.836-2.737-.836-.698 0-1.32.117-1.865.35-.545.232-.97.563-1.276.99a2.495 2.495 0 0 0-.459 1.489c0 .734.235 1.32.707 1.754.471.435 1.16.756 2.066.964l1.268.276c.379.085.655.21.826.376.172.165.257.383.257.652 0 .306-.135.554-.404.744-.269.19-.618.285-1.047.285h-.147c-.502 0-.912-.129-1.23-.386-.319-.257-.49-.618-.515-1.084h-2.149c0 .956.343 1.718 1.029 2.287zm15.318-.872a2.29 2.29 0 0 0 1.066-.267c.342-.177.624-.422.845-.734.22-.313.33-.652.33-1.02v-.55l-2.131.201c-.428.037-.792.163-1.092.377-.301.214-.45.511-.45.89a.99.99 0 0 0 .367.79c.245.209.551.313.918.313h.147zm-.514 1.726a3.376 3.376 0 0 1-1.515-.34 2.714 2.714 0 0 1-1.093-.955 2.497 2.497 0 0 1-.404-1.405c0-.649.156-1.184.468-1.607.312-.422.719-.74 1.222-.955a5.316 5.316 0 0 1 1.671-.395l2.406-.202v-.257a1.91 1.91 0 0 0-.202-.9 1.438 1.438 0 0 0-.578-.597 1.8 1.8 0 0 0-.891-.211h-.147c-.453 0-.833.116-1.139.349-.306.232-.478.526-.514.881h-2.113c.074-.87.46-1.58 1.158-2.13.698-.551 1.591-.827 2.681-.827.784 0 1.463.141 2.039.423.576.281 1.013.676 1.313 1.184.3.508.45 1.1.45 1.773v3.967c0 .416.006.741.019.973a7.757 7.757 0 0 0 .073 1.047h-1.983a13.359 13.359 0 0 1-.037-.312c-.013-.11-.025-.232-.037-.367a2.967 2.967 0 0 1-.018-.321v-.267c-.246.429-.619.778-1.121 1.047-.502.27-1.071.404-1.708.404zm6.943-9.367v9.183h2.112v-5.124c0-.478.101-.91.303-1.295.202-.386.471-.686.808-.9a2 2 0 0 1 1.093-.321h.147c.367 0 .671.076.909.23.239.152.42.376.542.67.122.294.184.649.184 1.065v5.675h2.112v-5.987c0-.674-.122-1.264-.367-1.773a2.7 2.7 0 0 0-1.093-1.184c-.484-.282-1.081-.423-1.791-.423-.637 0-1.197.135-1.681.404-.483.27-.872.637-1.166 1.102V13.42h-2.112zm14.326 7.64c.404 0 .784-.122 1.139-.367.355-.244.637-.597.845-1.056.208-.459.312-1 .312-1.625s-.104-1.167-.312-1.626c-.208-.459-.49-.81-.845-1.056a1.97 1.97 0 0 0-1.139-.367h-.147c-.441 0-.829.122-1.166.367-.337.245-.606.594-.808 1.047-.202.453-.303.992-.303 1.616 0 .955.214 1.706.643 2.25.428.545.973.818 1.634.818h.147zm-.514 1.727c-.821 0-1.531-.208-2.131-.624-.6-.416-1.065-.986-1.396-1.708-.33-.723-.496-1.537-.496-2.443 0-.906.169-1.72.506-2.443a4.065 4.065 0 0 1 1.441-1.708c.625-.417 1.347-.625 2.168-.625.612 0 1.166.141 1.662.423.496.281.848.612 1.056.991V9.745h2.112v12.857h-2.112v-1.23c-.208.38-.572.71-1.093.992a3.55 3.55 0 0 1-1.717.422zm12.981-3.324-1.208 3.14h-2.295l5.087-12.857h2.664l4.996 12.858h-2.315l-1.213-3.141h-5.716zm.763-1.984 2.089-5.43 2.098 5.43h-4.187zm9.803-7.733h2.204v12.857h-2.204V9.745zM83.501 40.071v-9.184h2.112v1.323a3.197 3.197 0 0 1 1.167-1.102c.483-.27 1.043-.405 1.68-.405.71 0 1.307.141 1.791.423.484.282.848.677 1.093 1.185s.367 1.099.367 1.772v5.988H89.6v-5.675c0-.417-.061-.772-.184-1.066a1.418 1.418 0 0 0-.541-.67c-.24-.153-.542-.23-.91-.23h-.147c-.392 0-.756.107-1.092.322a2.31 2.31 0 0 0-.809.9 2.747 2.747 0 0 0-.303 1.294v5.125h-2.112zm22.133 0c-.711 0-1.259-.193-1.644-.578-.386-.386-.579-.934-.579-1.645v-5.216h-1.947v-1.745h1.947v-2.975h2.112v2.975h2.113v1.745h-2.113v4.72c0 .356.061.595.184.717.122.122.361.184.716.184h1.488v1.818h-2.277zm5.859-9.184h-2.113v9.184h2.113v-9.184zm.092-3.673h-2.296v2.277h2.296v-2.277zm5.326 12.857c-.71 0-1.258-.193-1.644-.578-.385-.386-.578-.934-.578-1.645v-5.216h-1.947v-1.745h1.947v-2.975h2.112v2.975h2.112v1.745h-2.112v4.72c0 .356.061.595.184.717.122.122.361.184.716.184h1.488v1.818h-2.278zm5.051-.248c.465.288 1.041.432 1.727.432.636 0 1.2-.156 1.689-.469.49-.312.857-.719 1.103-1.221v1.506h2.112v-9.184h-2.112v5.051c0 .49-.099.934-.294 1.332a2.4 2.4 0 0 1-.763.928 1.73 1.73 0 0 1-1.019.33h-.147c-.514 0-.906-.171-1.175-.514-.27-.343-.405-.839-.405-1.488v-5.639h-2.112v5.951c0 .674.116 1.268.349 1.782a2.68 2.68 0 0 0 1.047 1.203zm12.031.248c-.711 0-1.259-.193-1.644-.578-.386-.386-.579-.934-.579-1.645v-5.216h-1.947v-1.745h1.947v-2.975h2.112v2.975h2.113v1.745h-2.113v4.72c0 .356.062.595.184.717s.361.184.717.184h1.487v1.818h-2.277zm8.853-7.136c.367.337.569.824.606 1.46h-4.206c.085-.636.324-1.123.716-1.46a2.049 2.049 0 0 1 1.378-.505h.147c.538 0 .992.169 1.359.505zm-3.527 6.76c.662.373 1.384.56 2.168.56 1.053 0 1.934-.273 2.645-.818.71-.544 1.163-1.276 1.359-2.194h-2.094a1.526 1.526 0 0 1-.606.936c-.319.233-.704.35-1.157.35h-.147c-.356 0-.705-.102-1.047-.304a2.447 2.447 0 0 1-.854-.863c-.227-.373-.358-.818-.395-1.332h6.3a12.978 12.978 0 0 0 .037-.937c0-.857-.16-1.616-.478-2.277a3.613 3.613 0 0 0-1.396-1.552c-.612-.374-1.347-.56-2.204-.56-.82 0-1.561.195-2.222.587a4.006 4.006 0 0 0-1.543 1.663c-.368.716-.551 1.558-.551 2.525 0 .992.199 1.85.597 2.572.397.722.927 1.27 1.588 1.643z" fill="#fff"/>
</svg>
